<?xml version="1.0" encoding="UTF-8" standalone="no"?>
<!DOCTYPE svg PUBLIC "-//W3C//DTD SVG 1.1//EN" "http://www.w3.org/Graphics/SVG/1.1/DTD/svg11.dtd">
<svg width="100%" height="100%" viewBox="0 0 81 70" version="1.1" xmlns="http://www.w3.org/2000/svg" xmlns:xlink="http://www.w3.org/1999/xlink" xml:space="preserve" xmlns:serif="http://www.serif.com/" style="fill-rule:evenodd;clip-rule:evenodd;stroke-linejoin:round;stroke-miterlimit:2;">
    <g transform="matrix(1,0,0,1,-1749.3,-904.711)">
        <g transform="matrix(1.90398,0,0,1.23649,5567.62,70.1161)">
            <g transform="matrix(0.525215,0,0,0.80874,-1387.94,349.291)">
                <rect x="-1175.7" y="402.7" width="80.9" height="69.1" style="fill:rgb(245,216,51);"/>
            </g>
        </g>
        <g transform="matrix(1,0,0,1,2925,502.011)">
            <g transform="matrix(1,0,0,1,-2925,-502.011)">
                <path d="M1780.19,951.411C1779.69,953.899 1777.51,955.811 1774.8,955.811C1772.18,955.811 1769.93,953.899 1769.41,951.411L1765.9,951.411C1765.3,951.411 1764.8,950.911 1764.8,950.311L1764.8,926.011C1764.8,924.211 1766.3,922.711 1768.1,922.711L1792.4,922.711C1794.2,922.711 1795.7,924.211 1795.7,926.011L1795.7,929.411L1801.4,929.411C1805.11,929.411 1807.81,935.652 1808.8,938.211L1812.4,938.211C1815.4,938.211 1817.9,940.711 1817.9,943.711L1817.9,950.311C1817.9,950.911 1817.4,951.411 1816.8,951.411L1813.39,951.411C1812.87,953.899 1810.62,955.811 1808,955.811C1805.38,955.811 1803.13,953.899 1802.61,951.411L1780.19,951.411ZM1808,947.011C1806.2,947.011 1804.7,948.511 1804.7,950.311C1804.7,952.111 1806.2,953.611 1808,953.611C1809.8,953.611 1811.3,952.111 1811.3,950.311C1811.3,948.511 1809.8,947.011 1808,947.011ZM1774.8,947.011C1773,947.011 1771.5,948.511 1771.5,950.311C1771.5,952.111 1773,953.611 1774.8,953.611C1776.6,953.611 1778.1,952.111 1778.1,950.311C1778.1,948.511 1776.7,947.011 1774.8,947.011ZM1780.19,949.211C1779.67,946.724 1777.42,944.811 1774.8,944.811C1772.18,944.811 1769.93,946.724 1769.41,949.211L1767,949.211L1767,926.011C1767,925.411 1767.5,924.911 1768.1,924.911L1792.4,924.911C1793,924.911 1793.5,925.411 1793.5,926.011L1793.5,949.211L1780.19,949.211ZM1813.39,949.211C1812.87,946.724 1810.62,944.811 1808,944.811C1805.38,944.811 1803.13,946.724 1802.61,949.211L1795.8,949.211L1795.8,940.411L1812.4,940.411C1814.2,940.411 1815.7,941.911 1815.7,943.711L1815.7,949.211L1813.39,949.211ZM1795.9,931.511L1795.9,938.111L1806.4,938.111C1805.1,935.011 1803.1,931.511 1801.4,931.511L1795.9,931.511Z"/>
            </g>
        </g>
    </g>
</svg>
