<?xml version="1.0" encoding="UTF-8" standalone="no"?>
<!DOCTYPE svg PUBLIC "-//W3C//DTD SVG 1.1//EN" "http://www.w3.org/Graphics/SVG/1.1/DTD/svg11.dtd">
<svg width="100%" height="100%" viewBox="0 0 81 70" version="1.1" xmlns="http://www.w3.org/2000/svg" xmlns:xlink="http://www.w3.org/1999/xlink" xml:space="preserve" xmlns:serif="http://www.serif.com/" style="fill-rule:evenodd;clip-rule:evenodd;stroke-linejoin:round;stroke-miterlimit:2;">
    <g transform="matrix(1,0,0,1,-1237.6,-904.711)">
        <g transform="matrix(1.90398,0,0,1.23649,5567.62,70.1161)">
            <g transform="matrix(0.525215,0,0,0.80874,-1387.94,349.291)">
                <rect x="-1687.4" y="402.7" width="80.9" height="69.1" style="fill:rgb(245,216,51);"/>
            </g>
        </g>
        <g transform="matrix(1,0,0,1,2925,502.011)">
            <g transform="matrix(1,0,0,1,-2925,-502.011)">
                <path d="M1261.4,928.011C1261.4,927.978 1261.4,927.945 1261.4,927.911C1261.4,924.911 1265,922.611 1269.7,922.611C1274.3,922.611 1278,924.911 1278,927.911C1278,927.945 1278,927.978 1278,928.011L1278,928.011L1278,950.611L1278,950.611C1277.92,953.562 1274.35,955.811 1269.7,955.811C1265.15,955.811 1261.48,953.562 1261.4,950.611L1261.4,950.611L1261.4,928.011L1261.4,928.011ZM1279.5,936.994C1279.51,934.002 1283.11,931.711 1287.8,931.711C1292.5,931.711 1296.1,934.011 1296.1,937.011L1296.1,950.511C1296.1,951.511 1295.7,952.511 1294.9,953.311C1293.3,954.911 1290.7,955.811 1287.8,955.811C1284.9,955.811 1282.2,954.911 1280.7,953.311C1279.9,952.511 1279.5,951.511 1279.5,950.511L1279.5,936.994ZM1276.5,949.108L1276.5,950.511C1276.5,952.611 1273.4,954.311 1269.7,954.311C1266,954.311 1262.9,952.511 1262.9,950.511L1262.9,949.108C1264.44,950.522 1266.98,951.311 1269.7,951.311C1272.42,951.311 1274.96,950.522 1276.5,949.108ZM1281,950.511L1281,949.108C1282.54,950.522 1285.08,951.311 1287.8,951.311C1290.47,951.311 1292.88,950.549 1294.5,949.179L1294.5,950.511C1294.5,950.958 1294.24,951.931 1293.72,952.335C1292.38,953.372 1290.3,954.211 1287.8,954.211C1285.3,954.211 1283,953.511 1281.8,952.211C1281.3,951.713 1281,951.116 1281,950.518L1281,950.511ZM1276.5,944.591L1276.5,946.011C1276.5,946.583 1275.95,947.549 1275.7,947.811C1274.5,949.011 1272.2,949.678 1269.7,949.811C1267.21,949.945 1264.64,948.221 1263.8,947.711C1263.18,947.334 1262.9,946.483 1262.9,946.011L1262.9,944.608C1264.44,946.022 1266.98,946.811 1269.7,946.811C1272.42,946.811 1274.96,945.934 1276.5,944.591ZM1281,944.608C1282.54,946.022 1285.08,946.811 1287.8,946.811C1290.47,946.811 1292.88,945.964 1294.5,944.659L1294.5,946.619C1294.37,947.008 1294.13,947.381 1293.8,947.711C1292.6,948.911 1290.3,949.711 1287.8,949.711C1285.3,949.711 1283,949.011 1281.8,947.711C1281.3,947.211 1281,946.611 1281,946.011L1281,944.608ZM1276.5,940.091L1276.5,941.511C1276.5,942.111 1276.2,942.711 1275.7,943.211C1274.5,944.411 1272.2,945.211 1269.7,945.211C1267.2,945.211 1264.9,944.511 1263.7,943.211C1263.2,942.711 1262.9,942.111 1262.9,941.511L1262.9,940.108C1264.44,941.522 1266.98,942.311 1269.7,942.311C1272.42,942.311 1274.96,941.434 1276.5,940.091ZM1281,940.087C1282.5,941.447 1284.98,942.311 1287.8,942.311C1290.56,942.311 1292.99,941.449 1294.5,940.133L1294.5,942.119C1294.37,942.508 1294.13,942.881 1293.8,943.211C1292.6,944.411 1290.3,945.211 1287.8,945.211C1285.3,945.211 1283,944.511 1281.8,943.211C1281.3,942.711 1281,942.111 1281,941.511L1281,940.087ZM1294.6,937.011C1294.5,935.011 1291.4,933.211 1287.8,933.211C1284.1,933.211 1281,934.911 1281,937.011C1281,939.011 1284.1,940.811 1287.8,940.811C1291.11,940.811 1293.94,939.45 1294.5,937.659L1294.6,937.011ZM1276.5,935.508L1276.5,937.011C1276.5,937.611 1276.2,938.211 1275.7,938.711C1274.5,939.911 1272.2,940.711 1269.7,940.711C1267.2,940.711 1264.9,940.011 1263.7,938.711C1263.2,938.211 1262.9,937.611 1262.9,937.011L1262.9,935.508C1264.44,936.922 1266.98,937.711 1269.7,937.711C1272.42,937.711 1274.96,936.922 1276.5,935.508ZM1262.9,930.987C1264.4,932.347 1266.88,933.211 1269.7,933.211C1272.56,933.211 1275.02,932.358 1276.5,931.012L1276.5,932.411C1276.5,933.011 1276.2,933.611 1275.7,934.111C1274.5,935.311 1272.2,936.111 1269.7,936.111C1267.2,936.111 1264.9,935.411 1263.7,934.111C1263.2,933.611 1262.9,933.011 1262.9,932.411L1262.9,930.987ZM1269.7,924.211C1266,924.211 1262.9,925.911 1262.9,928.011C1262.9,930.111 1266,931.811 1269.7,931.811C1273.4,931.811 1276.5,930.111 1276.5,928.011C1276.5,925.911 1273.4,924.211 1269.7,924.211Z"/>
            </g>
        </g>
    </g>
</svg>
