<?xml version="1.0" encoding="UTF-8" standalone="no"?>
<!DOCTYPE svg PUBLIC "-//W3C//DTD SVG 1.1//EN" "http://www.w3.org/Graphics/SVG/1.1/DTD/svg11.dtd">
<svg width="100%" height="100%" viewBox="0 0 81 70" version="1.1" xmlns="http://www.w3.org/2000/svg" xmlns:xlink="http://www.w3.org/1999/xlink" xml:space="preserve" xmlns:serif="http://www.serif.com/" style="fill-rule:evenodd;clip-rule:evenodd;stroke-linejoin:round;stroke-miterlimit:2;">
    <g transform="matrix(1,0,0,1,-2285.5,-904.711)">
        <g transform="matrix(1.90398,0,0,1.23649,5567.62,70.1161)">
            <g transform="matrix(0.525215,0,0,0.80874,-1387.94,349.291)">
                <rect x="-639.5" y="402.7" width="80.9" height="69.1" style="fill:rgb(245,216,51);"/>
            </g>
        </g>
        <g transform="matrix(1,0,0,1,2925,502.011)">
            <g transform="matrix(1,0,0,1,-2925,-502.011)">
                <path d="M2325.9,957.411C2325.7,957.411 2325.5,957.311 2325.3,957.111C2324,955.611 2322.4,954.511 2320.7,953.511C2317.8,951.611 2314.7,949.611 2313.1,944.811L2313.1,944.611L2311.6,926.511C2311.6,926.311 2311.7,926.011 2311.8,925.911C2312,925.711 2312.2,925.711 2312.4,925.711C2316.4,926.311 2320.3,924.211 2324.4,921.911L2325.5,921.311C2325.7,921.211 2326,921.211 2326.2,921.311L2327.3,921.911C2331.4,924.211 2335.3,926.411 2339.3,925.711C2339.5,925.711 2339.8,925.711 2339.9,925.911C2340.1,926.111 2340.2,926.311 2340.1,926.511L2338.6,944.611L2338.6,944.811C2336.9,949.611 2333.9,951.611 2331,953.511C2329.3,954.611 2327.7,955.611 2326.4,957.111C2326.3,957.311 2326.1,957.411 2325.9,957.411ZM2314.6,944.411C2316.1,948.711 2318.8,950.411 2321.6,952.211C2323.1,953.211 2324.6,954.111 2325.9,955.511C2327.2,954.111 2328.7,953.211 2330.2,952.211C2333,950.411 2335.7,948.611 2337.2,944.411L2338.6,927.311C2334.4,927.611 2330.6,925.411 2326.5,923.211L2325.8,922.811L2325.1,923.211C2321.1,925.511 2317.2,927.611 2313.1,927.311L2314.6,944.411ZM2324.4,946.811C2324.1,946.811 2323.9,946.611 2323.7,946.411L2323.3,945.611C2322.1,943.011 2320.6,940.111 2317.8,937.511C2317.5,937.211 2317.5,936.711 2317.8,936.411C2318.1,936.111 2318.6,936.111 2318.9,936.411C2321.7,939.011 2323.3,941.911 2324.5,944.411C2326.9,940.511 2332.6,934.011 2334.5,931.911C2334.8,931.611 2335.3,931.611 2335.6,931.811C2335.9,932.111 2335.9,932.611 2335.7,932.911C2331.5,937.611 2326.5,943.611 2325.3,946.311C2324.9,946.611 2324.7,946.811 2324.4,946.811Z" style="fill-rule:nonzero;"/>
            </g>
        </g>
    </g>
</svg>
